<mxfile host="app.diagrams.net" agent="Mozilla/5.0 (Windows NT 10.0; Win64; x64; rv:131.0) Gecko/20100101 Firefox/131.0" version="24.8.0">
  <diagram name="Page-1" id="N0bk4-22KpHHaJqFf_WZ">
    <mxGraphModel dx="1442" dy="1932" grid="0" gridSize="10" guides="1" tooltips="1" connect="1" arrows="1" fold="1" page="0" pageScale="1" pageWidth="850" pageHeight="1100" math="1" shadow="0">
      <root>
        <mxCell id="0" />
        <mxCell id="1" parent="0" />
        <mxCell id="aW1ubNaQqkT1TN15lFtm-4" style="edgeStyle=none;curved=1;rounded=0;orthogonalLoop=1;jettySize=auto;html=1;fontSize=12;startSize=8;endSize=8;" edge="1" parent="1" source="aW1ubNaQqkT1TN15lFtm-1" target="aW1ubNaQqkT1TN15lFtm-3">
          <mxGeometry relative="1" as="geometry" />
        </mxCell>
        <mxCell id="aW1ubNaQqkT1TN15lFtm-1" value="START" style="strokeWidth=2;html=1;shape=mxgraph.flowchart.terminator;whiteSpace=wrap;" vertex="1" parent="1">
          <mxGeometry x="148" y="-237" width="100" height="60" as="geometry" />
        </mxCell>
        <mxCell id="aW1ubNaQqkT1TN15lFtm-2" value="printf(&quot;Nilai mahasiswa: &quot;);&#xa;    scanf(&quot;%d&quot;, &amp;nilai);" style="shape=parallelogram;html=1;strokeWidth=2;perimeter=parallelogramPerimeter;whiteSpace=wrap;rounded=1;arcSize=12;size=0.23;" vertex="1" parent="1">
          <mxGeometry x="61" y="-31" width="257" height="92" as="geometry" />
        </mxCell>
        <mxCell id="aW1ubNaQqkT1TN15lFtm-3" value="int nilai;" style="shape=hexagon;perimeter=hexagonPerimeter2;whiteSpace=wrap;html=1;fixedSize=1;" vertex="1" parent="1">
          <mxGeometry x="138" y="-147" width="120" height="80" as="geometry" />
        </mxCell>
        <mxCell id="aW1ubNaQqkT1TN15lFtm-5" style="edgeStyle=none;curved=1;rounded=0;orthogonalLoop=1;jettySize=auto;html=1;entryX=0.533;entryY=0.033;entryDx=0;entryDy=0;entryPerimeter=0;fontSize=12;startSize=8;endSize=8;" edge="1" parent="1" source="aW1ubNaQqkT1TN15lFtm-3" target="aW1ubNaQqkT1TN15lFtm-2">
          <mxGeometry relative="1" as="geometry" />
        </mxCell>
        <mxCell id="aW1ubNaQqkT1TN15lFtm-9" style="edgeStyle=none;curved=1;rounded=0;orthogonalLoop=1;jettySize=auto;html=1;fontSize=12;startSize=8;endSize=8;exitX=1;exitY=0.5;exitDx=0;exitDy=0;exitPerimeter=0;entryX=0.597;entryY=0.04;entryDx=0;entryDy=0;entryPerimeter=0;" edge="1" parent="1" source="aW1ubNaQqkT1TN15lFtm-6" target="aW1ubNaQqkT1TN15lFtm-8">
          <mxGeometry relative="1" as="geometry">
            <mxPoint x="361" y="157" as="targetPoint" />
            <mxPoint x="246" y="160.00173252279646" as="sourcePoint" />
            <Array as="points">
              <mxPoint x="362" y="165" />
              <mxPoint x="367" y="154" />
            </Array>
          </mxGeometry>
        </mxCell>
        <mxCell id="aW1ubNaQqkT1TN15lFtm-12" value="TRUE" style="edgeLabel;html=1;align=center;verticalAlign=middle;resizable=0;points=[];fontSize=12;" vertex="1" connectable="0" parent="aW1ubNaQqkT1TN15lFtm-9">
          <mxGeometry x="-0.3298" y="3" relative="1" as="geometry">
            <mxPoint as="offset" />
          </mxGeometry>
        </mxCell>
        <mxCell id="aW1ubNaQqkT1TN15lFtm-6" value="nilai &gt;= 85" style="strokeWidth=2;html=1;shape=mxgraph.flowchart.decision;whiteSpace=wrap;" vertex="1" parent="1">
          <mxGeometry x="133" y="97" width="113" height="119" as="geometry" />
        </mxCell>
        <mxCell id="aW1ubNaQqkT1TN15lFtm-7" style="edgeStyle=none;curved=1;rounded=0;orthogonalLoop=1;jettySize=auto;html=1;entryX=0.5;entryY=0;entryDx=0;entryDy=0;entryPerimeter=0;fontSize=12;startSize=8;endSize=8;" edge="1" parent="1" source="aW1ubNaQqkT1TN15lFtm-2" target="aW1ubNaQqkT1TN15lFtm-6">
          <mxGeometry relative="1" as="geometry" />
        </mxCell>
        <mxCell id="aW1ubNaQqkT1TN15lFtm-28" style="edgeStyle=none;curved=1;rounded=0;orthogonalLoop=1;jettySize=auto;html=1;fontSize=12;startSize=8;endSize=8;" edge="1" parent="1" source="aW1ubNaQqkT1TN15lFtm-8" target="aW1ubNaQqkT1TN15lFtm-27">
          <mxGeometry relative="1" as="geometry" />
        </mxCell>
        <mxCell id="aW1ubNaQqkT1TN15lFtm-8" value="printf(&quot;Siswa Berprestasi&quot;);" style="shape=parallelogram;html=1;strokeWidth=2;perimeter=parallelogramPerimeter;whiteSpace=wrap;rounded=1;arcSize=12;size=0.23;" vertex="1" parent="1">
          <mxGeometry x="219" y="279" width="233" height="75" as="geometry" />
        </mxCell>
        <mxCell id="aW1ubNaQqkT1TN15lFtm-20" style="edgeStyle=none;curved=1;rounded=0;orthogonalLoop=1;jettySize=auto;html=1;entryX=0.5;entryY=0;entryDx=0;entryDy=0;fontSize=12;startSize=8;endSize=8;" edge="1" parent="1" source="aW1ubNaQqkT1TN15lFtm-13" target="aW1ubNaQqkT1TN15lFtm-19">
          <mxGeometry relative="1" as="geometry">
            <Array as="points">
              <mxPoint x="171" y="313" />
            </Array>
          </mxGeometry>
        </mxCell>
        <mxCell id="aW1ubNaQqkT1TN15lFtm-21" value="TRUE" style="edgeLabel;html=1;align=center;verticalAlign=middle;resizable=0;points=[];fontSize=12;" vertex="1" connectable="0" parent="aW1ubNaQqkT1TN15lFtm-20">
          <mxGeometry x="0.0986" y="-4" relative="1" as="geometry">
            <mxPoint as="offset" />
          </mxGeometry>
        </mxCell>
        <mxCell id="aW1ubNaQqkT1TN15lFtm-13" value="nilai &gt;=70 &amp;&amp; nilai &lt;= 84" style="strokeWidth=2;html=1;shape=mxgraph.flowchart.decision;whiteSpace=wrap;" vertex="1" parent="1">
          <mxGeometry x="-47" y="259" width="172" height="107" as="geometry" />
        </mxCell>
        <mxCell id="aW1ubNaQqkT1TN15lFtm-14" style="edgeStyle=none;curved=1;rounded=0;orthogonalLoop=1;jettySize=auto;html=1;entryX=0.5;entryY=0;entryDx=0;entryDy=0;entryPerimeter=0;fontSize=12;startSize=8;endSize=8;" edge="1" parent="1" source="aW1ubNaQqkT1TN15lFtm-6" target="aW1ubNaQqkT1TN15lFtm-13">
          <mxGeometry relative="1" as="geometry">
            <Array as="points">
              <mxPoint x="33" y="150" />
              <mxPoint x="37" y="172" />
            </Array>
          </mxGeometry>
        </mxCell>
        <mxCell id="aW1ubNaQqkT1TN15lFtm-15" value="FALSE" style="edgeLabel;html=1;align=center;verticalAlign=middle;resizable=0;points=[];fontSize=12;" vertex="1" connectable="0" parent="aW1ubNaQqkT1TN15lFtm-14">
          <mxGeometry x="-0.3094" y="6" relative="1" as="geometry">
            <mxPoint as="offset" />
          </mxGeometry>
        </mxCell>
        <mxCell id="aW1ubNaQqkT1TN15lFtm-19" value="printf(&quot;Siswa baik&quot;);" style="shape=parallelogram;perimeter=parallelogramPerimeter;whiteSpace=wrap;html=1;fixedSize=1;" vertex="1" parent="1">
          <mxGeometry x="74" y="437" width="158" height="66" as="geometry" />
        </mxCell>
        <mxCell id="aW1ubNaQqkT1TN15lFtm-31" style="edgeStyle=none;curved=1;rounded=0;orthogonalLoop=1;jettySize=auto;html=1;fontSize=12;startSize=8;endSize=8;entryX=0.271;entryY=0.108;entryDx=0;entryDy=0;entryPerimeter=0;" edge="1" parent="1" source="aW1ubNaQqkT1TN15lFtm-23" target="aW1ubNaQqkT1TN15lFtm-27">
          <mxGeometry relative="1" as="geometry">
            <mxPoint x="-121" y="808" as="targetPoint" />
            <Array as="points">
              <mxPoint x="36" y="456" />
            </Array>
          </mxGeometry>
        </mxCell>
        <mxCell id="aW1ubNaQqkT1TN15lFtm-23" value="nilai &lt; 70" style="strokeWidth=2;html=1;shape=mxgraph.flowchart.decision;whiteSpace=wrap;" vertex="1" parent="1">
          <mxGeometry x="-98" y="412" width="82" height="81" as="geometry" />
        </mxCell>
        <mxCell id="aW1ubNaQqkT1TN15lFtm-24" style="edgeStyle=none;curved=1;rounded=0;orthogonalLoop=1;jettySize=auto;html=1;entryX=0.5;entryY=0;entryDx=0;entryDy=0;entryPerimeter=0;fontSize=12;startSize=8;endSize=8;" edge="1" parent="1" source="aW1ubNaQqkT1TN15lFtm-13" target="aW1ubNaQqkT1TN15lFtm-23">
          <mxGeometry relative="1" as="geometry">
            <Array as="points">
              <mxPoint x="-76" y="313" />
            </Array>
          </mxGeometry>
        </mxCell>
        <mxCell id="aW1ubNaQqkT1TN15lFtm-30" style="edgeStyle=none;curved=1;rounded=0;orthogonalLoop=1;jettySize=auto;html=1;fontSize=12;startSize=8;endSize=8;" edge="1" parent="1" source="aW1ubNaQqkT1TN15lFtm-25" target="aW1ubNaQqkT1TN15lFtm-27">
          <mxGeometry relative="1" as="geometry" />
        </mxCell>
        <mxCell id="aW1ubNaQqkT1TN15lFtm-25" value="printf(&quot;Perlu peningkatan&quot;);" style="shape=parallelogram;html=1;strokeWidth=2;perimeter=parallelogramPerimeter;whiteSpace=wrap;rounded=1;arcSize=12;size=0.23;" vertex="1" parent="1">
          <mxGeometry x="-77" y="620" width="212" height="69" as="geometry" />
        </mxCell>
        <mxCell id="aW1ubNaQqkT1TN15lFtm-26" style="edgeStyle=none;curved=1;rounded=0;orthogonalLoop=1;jettySize=auto;html=1;entryX=0.571;entryY=0.029;entryDx=0;entryDy=0;entryPerimeter=0;fontSize=12;startSize=8;endSize=8;" edge="1" parent="1" source="aW1ubNaQqkT1TN15lFtm-23" target="aW1ubNaQqkT1TN15lFtm-25">
          <mxGeometry relative="1" as="geometry">
            <Array as="points">
              <mxPoint x="12" y="455" />
            </Array>
          </mxGeometry>
        </mxCell>
        <mxCell id="aW1ubNaQqkT1TN15lFtm-27" value="END" style="strokeWidth=2;html=1;shape=mxgraph.flowchart.terminator;whiteSpace=wrap;" vertex="1" parent="1">
          <mxGeometry x="193" y="726" width="59" height="37" as="geometry" />
        </mxCell>
        <mxCell id="aW1ubNaQqkT1TN15lFtm-29" style="edgeStyle=none;curved=1;rounded=0;orthogonalLoop=1;jettySize=auto;html=1;entryX=0.5;entryY=0;entryDx=0;entryDy=0;entryPerimeter=0;fontSize=12;startSize=8;endSize=8;" edge="1" parent="1" source="aW1ubNaQqkT1TN15lFtm-19" target="aW1ubNaQqkT1TN15lFtm-27">
          <mxGeometry relative="1" as="geometry" />
        </mxCell>
        <mxCell id="aW1ubNaQqkT1TN15lFtm-34" style="edgeStyle=none;curved=1;rounded=0;orthogonalLoop=1;jettySize=auto;html=1;fontSize=12;startSize=8;endSize=8;" edge="1" parent="1" source="aW1ubNaQqkT1TN15lFtm-32" target="aW1ubNaQqkT1TN15lFtm-33">
          <mxGeometry relative="1" as="geometry" />
        </mxCell>
        <mxCell id="aW1ubNaQqkT1TN15lFtm-32" value="START" style="strokeWidth=2;html=1;shape=mxgraph.flowchart.terminator;whiteSpace=wrap;" vertex="1" parent="1">
          <mxGeometry x="1025" y="-300" width="69" height="34" as="geometry" />
        </mxCell>
        <mxCell id="aW1ubNaQqkT1TN15lFtm-37" style="edgeStyle=none;curved=1;rounded=0;orthogonalLoop=1;jettySize=auto;html=1;fontSize=12;startSize=8;endSize=8;" edge="1" parent="1" source="aW1ubNaQqkT1TN15lFtm-33" target="aW1ubNaQqkT1TN15lFtm-36">
          <mxGeometry relative="1" as="geometry" />
        </mxCell>
        <mxCell id="aW1ubNaQqkT1TN15lFtm-33" value="float diskon, total;" style="shape=hexagon;perimeter=hexagonPerimeter2;whiteSpace=wrap;html=1;fixedSize=1;" vertex="1" parent="1">
          <mxGeometry x="1010.5" y="-230" width="90" height="59" as="geometry" />
        </mxCell>
        <mxCell id="aW1ubNaQqkT1TN15lFtm-39" style="edgeStyle=none;curved=1;rounded=0;orthogonalLoop=1;jettySize=auto;html=1;fontSize=12;startSize=8;endSize=8;" edge="1" parent="1" source="aW1ubNaQqkT1TN15lFtm-36" target="aW1ubNaQqkT1TN15lFtm-38">
          <mxGeometry relative="1" as="geometry" />
        </mxCell>
        <mxCell id="aW1ubNaQqkT1TN15lFtm-36" value="scanf(&quot;%f&quot;, &amp;total);" style="shape=parallelogram;html=1;strokeWidth=2;perimeter=parallelogramPerimeter;whiteSpace=wrap;rounded=1;arcSize=12;size=0.23;" vertex="1" parent="1">
          <mxGeometry x="982" y="-138" width="143" height="55" as="geometry" />
        </mxCell>
        <mxCell id="aW1ubNaQqkT1TN15lFtm-38" value="total &gt;= 500" style="strokeWidth=2;html=1;shape=mxgraph.flowchart.decision;whiteSpace=wrap;" vertex="1" parent="1">
          <mxGeometry x="1001" y="-60" width="100" height="100" as="geometry" />
        </mxCell>
        <mxCell id="aW1ubNaQqkT1TN15lFtm-40" value="diskon = 0.20;" style="rounded=1;whiteSpace=wrap;html=1;absoluteArcSize=1;arcSize=14;strokeWidth=2;" vertex="1" parent="1">
          <mxGeometry x="1097" y="85" width="110" height="59" as="geometry" />
        </mxCell>
        <mxCell id="aW1ubNaQqkT1TN15lFtm-41" style="edgeStyle=none;curved=1;rounded=0;orthogonalLoop=1;jettySize=auto;html=1;entryX=0.569;entryY=0.056;entryDx=0;entryDy=0;entryPerimeter=0;fontSize=12;startSize=8;endSize=8;" edge="1" parent="1" source="aW1ubNaQqkT1TN15lFtm-38" target="aW1ubNaQqkT1TN15lFtm-40">
          <mxGeometry relative="1" as="geometry">
            <Array as="points">
              <mxPoint x="1140" y="-10" />
            </Array>
          </mxGeometry>
        </mxCell>
        <mxCell id="aW1ubNaQqkT1TN15lFtm-49" value="TRUE" style="edgeLabel;html=1;align=center;verticalAlign=middle;resizable=0;points=[];fontSize=12;" vertex="1" connectable="0" parent="aW1ubNaQqkT1TN15lFtm-41">
          <mxGeometry x="-0.0868" y="-7" relative="1" as="geometry">
            <mxPoint as="offset" />
          </mxGeometry>
        </mxCell>
        <mxCell id="aW1ubNaQqkT1TN15lFtm-43" value="total &gt;= 200 &amp;&amp; total &lt;= 499" style="strokeWidth=2;html=1;shape=mxgraph.flowchart.decision;whiteSpace=wrap;" vertex="1" parent="1">
          <mxGeometry x="841" y="64.5" width="215" height="100" as="geometry" />
        </mxCell>
        <mxCell id="aW1ubNaQqkT1TN15lFtm-44" style="edgeStyle=none;curved=1;rounded=0;orthogonalLoop=1;jettySize=auto;html=1;entryX=0.5;entryY=0;entryDx=0;entryDy=0;entryPerimeter=0;fontSize=12;startSize=8;endSize=8;" edge="1" parent="1" source="aW1ubNaQqkT1TN15lFtm-38" target="aW1ubNaQqkT1TN15lFtm-43">
          <mxGeometry relative="1" as="geometry">
            <Array as="points">
              <mxPoint x="970" y="-7" />
            </Array>
          </mxGeometry>
        </mxCell>
        <mxCell id="aW1ubNaQqkT1TN15lFtm-50" value="FALSE" style="edgeLabel;html=1;align=center;verticalAlign=middle;resizable=0;points=[];fontSize=12;" vertex="1" connectable="0" parent="aW1ubNaQqkT1TN15lFtm-44">
          <mxGeometry x="-0.0469" y="6" relative="1" as="geometry">
            <mxPoint as="offset" />
          </mxGeometry>
        </mxCell>
        <mxCell id="aW1ubNaQqkT1TN15lFtm-58" style="edgeStyle=none;curved=1;rounded=0;orthogonalLoop=1;jettySize=auto;html=1;fontSize=12;startSize=8;endSize=8;" edge="1" parent="1" source="aW1ubNaQqkT1TN15lFtm-45" target="aW1ubNaQqkT1TN15lFtm-56">
          <mxGeometry relative="1" as="geometry" />
        </mxCell>
        <mxCell id="aW1ubNaQqkT1TN15lFtm-45" value="diskon = 0.10;" style="rounded=1;whiteSpace=wrap;html=1;absoluteArcSize=1;arcSize=14;strokeWidth=2;" vertex="1" parent="1">
          <mxGeometry x="1016" y="243" width="100" height="46" as="geometry" />
        </mxCell>
        <mxCell id="aW1ubNaQqkT1TN15lFtm-46" style="edgeStyle=none;curved=1;rounded=0;orthogonalLoop=1;jettySize=auto;html=1;entryX=0.621;entryY=-0.04;entryDx=0;entryDy=0;entryPerimeter=0;fontSize=12;startSize=8;endSize=8;" edge="1" parent="1" source="aW1ubNaQqkT1TN15lFtm-43" target="aW1ubNaQqkT1TN15lFtm-45">
          <mxGeometry relative="1" as="geometry">
            <Array as="points">
              <mxPoint x="1071" y="115" />
            </Array>
          </mxGeometry>
        </mxCell>
        <mxCell id="aW1ubNaQqkT1TN15lFtm-51" value="TRUE" style="edgeLabel;html=1;align=center;verticalAlign=middle;resizable=0;points=[];fontSize=12;" vertex="1" connectable="0" parent="aW1ubNaQqkT1TN15lFtm-46">
          <mxGeometry x="0.0995" y="1" relative="1" as="geometry">
            <mxPoint as="offset" />
          </mxGeometry>
        </mxCell>
        <mxCell id="aW1ubNaQqkT1TN15lFtm-54" style="edgeStyle=none;curved=1;rounded=0;orthogonalLoop=1;jettySize=auto;html=1;entryX=0.528;entryY=0.012;entryDx=0;entryDy=0;fontSize=12;startSize=8;endSize=8;entryPerimeter=0;" edge="1" parent="1" source="aW1ubNaQqkT1TN15lFtm-47" target="aW1ubNaQqkT1TN15lFtm-53">
          <mxGeometry relative="1" as="geometry" />
        </mxCell>
        <mxCell id="aW1ubNaQqkT1TN15lFtm-47" value="total &lt; 200" style="strokeWidth=2;html=1;shape=mxgraph.flowchart.decision;whiteSpace=wrap;" vertex="1" parent="1">
          <mxGeometry x="818" y="212" width="109" height="62" as="geometry" />
        </mxCell>
        <mxCell id="aW1ubNaQqkT1TN15lFtm-48" style="edgeStyle=none;curved=1;rounded=0;orthogonalLoop=1;jettySize=auto;html=1;entryX=0.44;entryY=0.055;entryDx=0;entryDy=0;entryPerimeter=0;fontSize=12;startSize=8;endSize=8;" edge="1" parent="1" source="aW1ubNaQqkT1TN15lFtm-43" target="aW1ubNaQqkT1TN15lFtm-47">
          <mxGeometry relative="1" as="geometry">
            <Array as="points">
              <mxPoint x="838" y="113" />
            </Array>
          </mxGeometry>
        </mxCell>
        <mxCell id="aW1ubNaQqkT1TN15lFtm-52" value="FALSE" style="edgeLabel;html=1;align=center;verticalAlign=middle;resizable=0;points=[];fontSize=12;" vertex="1" connectable="0" parent="aW1ubNaQqkT1TN15lFtm-48">
          <mxGeometry x="0.0547" y="1" relative="1" as="geometry">
            <mxPoint as="offset" />
          </mxGeometry>
        </mxCell>
        <mxCell id="aW1ubNaQqkT1TN15lFtm-59" style="edgeStyle=none;curved=1;rounded=0;orthogonalLoop=1;jettySize=auto;html=1;fontSize=12;startSize=8;endSize=8;" edge="1" parent="1" source="aW1ubNaQqkT1TN15lFtm-53" target="aW1ubNaQqkT1TN15lFtm-56">
          <mxGeometry relative="1" as="geometry" />
        </mxCell>
        <mxCell id="aW1ubNaQqkT1TN15lFtm-53" value="printf(&quot;tidak ada diskon\n&quot;);" style="shape=parallelogram;html=1;strokeWidth=2;perimeter=parallelogramPerimeter;whiteSpace=wrap;rounded=1;arcSize=12;size=0.23;" vertex="1" parent="1">
          <mxGeometry x="763.5" y="328" width="218" height="60" as="geometry" />
        </mxCell>
        <mxCell id="aW1ubNaQqkT1TN15lFtm-61" style="edgeStyle=none;curved=1;rounded=0;orthogonalLoop=1;jettySize=auto;html=1;fontSize=12;startSize=8;endSize=8;" edge="1" parent="1" source="aW1ubNaQqkT1TN15lFtm-56" target="aW1ubNaQqkT1TN15lFtm-60">
          <mxGeometry relative="1" as="geometry" />
        </mxCell>
        <mxCell id="aW1ubNaQqkT1TN15lFtm-56" value="printf(&quot;Total harganya setelah diskon %.3f\n&quot;, total * (1 - diskon));" style="shape=parallelogram;html=1;strokeWidth=2;perimeter=parallelogramPerimeter;whiteSpace=wrap;rounded=1;arcSize=12;size=0.23;" vertex="1" parent="1">
          <mxGeometry x="801" y="442" width="509" height="83" as="geometry" />
        </mxCell>
        <mxCell id="aW1ubNaQqkT1TN15lFtm-57" style="edgeStyle=none;curved=1;rounded=0;orthogonalLoop=1;jettySize=auto;html=1;entryX=0.695;entryY=0.05;entryDx=0;entryDy=0;entryPerimeter=0;fontSize=12;startSize=8;endSize=8;" edge="1" parent="1" source="aW1ubNaQqkT1TN15lFtm-40" target="aW1ubNaQqkT1TN15lFtm-56">
          <mxGeometry relative="1" as="geometry" />
        </mxCell>
        <mxCell id="aW1ubNaQqkT1TN15lFtm-60" value="END" style="strokeWidth=2;html=1;shape=mxgraph.flowchart.terminator;whiteSpace=wrap;" vertex="1" parent="1">
          <mxGeometry x="1016" y="574" width="66" height="33" as="geometry" />
        </mxCell>
        <mxCell id="aW1ubNaQqkT1TN15lFtm-64" style="edgeStyle=none;curved=1;rounded=0;orthogonalLoop=1;jettySize=auto;html=1;entryX=0.5;entryY=0;entryDx=0;entryDy=0;fontSize=12;startSize=8;endSize=8;" edge="1" parent="1" source="aW1ubNaQqkT1TN15lFtm-62" target="aW1ubNaQqkT1TN15lFtm-63">
          <mxGeometry relative="1" as="geometry" />
        </mxCell>
        <mxCell id="aW1ubNaQqkT1TN15lFtm-62" value="START" style="strokeWidth=2;html=1;shape=mxgraph.flowchart.terminator;whiteSpace=wrap;" vertex="1" parent="1">
          <mxGeometry x="1761" y="-334" width="86" height="42" as="geometry" />
        </mxCell>
        <mxCell id="aW1ubNaQqkT1TN15lFtm-63" value="float bb, tinggi, bmi;" style="shape=hexagon;perimeter=hexagonPerimeter2;whiteSpace=wrap;html=1;fixedSize=1;" vertex="1" parent="1">
          <mxGeometry x="1732" y="-245" width="140" height="74" as="geometry" />
        </mxCell>
        <mxCell id="aW1ubNaQqkT1TN15lFtm-68" style="edgeStyle=none;curved=1;rounded=0;orthogonalLoop=1;jettySize=auto;html=1;entryX=0.5;entryY=0;entryDx=0;entryDy=0;fontSize=12;startSize=8;endSize=8;" edge="1" parent="1" source="aW1ubNaQqkT1TN15lFtm-65" target="aW1ubNaQqkT1TN15lFtm-67">
          <mxGeometry relative="1" as="geometry" />
        </mxCell>
        <mxCell id="aW1ubNaQqkT1TN15lFtm-65" value="printf(&quot;Formatnya [BERAT BADAN] [TINGGI]\n&quot;);&#xa;    scanf(&quot;%f %f&quot;, &amp;bb, &amp;tinggi);" style="shape=parallelogram;html=1;strokeWidth=2;perimeter=parallelogramPerimeter;whiteSpace=wrap;rounded=1;arcSize=12;size=0.23;" vertex="1" parent="1">
          <mxGeometry x="1569" y="-124" width="408" height="123" as="geometry" />
        </mxCell>
        <mxCell id="aW1ubNaQqkT1TN15lFtm-66" style="edgeStyle=none;curved=1;rounded=0;orthogonalLoop=1;jettySize=auto;html=1;entryX=0.565;entryY=0.033;entryDx=0;entryDy=0;entryPerimeter=0;fontSize=12;startSize=8;endSize=8;" edge="1" parent="1" source="aW1ubNaQqkT1TN15lFtm-63" target="aW1ubNaQqkT1TN15lFtm-65">
          <mxGeometry relative="1" as="geometry" />
        </mxCell>
        <mxCell id="aW1ubNaQqkT1TN15lFtm-72" style="edgeStyle=none;curved=1;rounded=0;orthogonalLoop=1;jettySize=auto;html=1;fontSize=12;startSize=8;endSize=8;" edge="1" parent="1" source="aW1ubNaQqkT1TN15lFtm-67" target="aW1ubNaQqkT1TN15lFtm-69">
          <mxGeometry relative="1" as="geometry" />
        </mxCell>
        <mxCell id="aW1ubNaQqkT1TN15lFtm-67" value="bmi = bb / (tinggi * tinggi);" style="rounded=1;whiteSpace=wrap;html=1;absoluteArcSize=1;arcSize=14;strokeWidth=2;" vertex="1" parent="1">
          <mxGeometry x="1688" y="54" width="177" height="58" as="geometry" />
        </mxCell>
        <mxCell id="aW1ubNaQqkT1TN15lFtm-78" style="edgeStyle=none;curved=1;rounded=0;orthogonalLoop=1;jettySize=auto;html=1;entryX=0.5;entryY=0;entryDx=0;entryDy=0;fontSize=12;startSize=8;endSize=8;" edge="1" parent="1" source="aW1ubNaQqkT1TN15lFtm-69" target="aW1ubNaQqkT1TN15lFtm-77">
          <mxGeometry relative="1" as="geometry">
            <Array as="points">
              <mxPoint x="1869" y="228" />
            </Array>
          </mxGeometry>
        </mxCell>
        <mxCell id="aW1ubNaQqkT1TN15lFtm-85" value="TRUE" style="edgeLabel;html=1;align=center;verticalAlign=middle;resizable=0;points=[];fontSize=12;" vertex="1" connectable="0" parent="aW1ubNaQqkT1TN15lFtm-78">
          <mxGeometry x="-0.1257" y="-12" relative="1" as="geometry">
            <mxPoint y="-1" as="offset" />
          </mxGeometry>
        </mxCell>
        <mxCell id="aW1ubNaQqkT1TN15lFtm-69" value="bmi &lt; 18.5" style="strokeWidth=2;html=1;shape=mxgraph.flowchart.decision;whiteSpace=wrap;" vertex="1" parent="1">
          <mxGeometry x="1723" y="174" width="100" height="100" as="geometry" />
        </mxCell>
        <mxCell id="aW1ubNaQqkT1TN15lFtm-80" style="edgeStyle=none;curved=1;rounded=0;orthogonalLoop=1;jettySize=auto;html=1;fontSize=12;startSize=8;endSize=8;entryX=0.608;entryY=0.084;entryDx=0;entryDy=0;entryPerimeter=0;" edge="1" parent="1" source="aW1ubNaQqkT1TN15lFtm-70" target="aW1ubNaQqkT1TN15lFtm-79">
          <mxGeometry relative="1" as="geometry">
            <mxPoint x="1851.8461538461538" y="387" as="targetPoint" />
            <Array as="points">
              <mxPoint x="1821" y="391" />
            </Array>
          </mxGeometry>
        </mxCell>
        <mxCell id="aW1ubNaQqkT1TN15lFtm-87" value="TRUE" style="edgeLabel;html=1;align=center;verticalAlign=middle;resizable=0;points=[];fontSize=12;" vertex="1" connectable="0" parent="aW1ubNaQqkT1TN15lFtm-80">
          <mxGeometry x="0.1057" y="-8" relative="1" as="geometry">
            <mxPoint as="offset" />
          </mxGeometry>
        </mxCell>
        <mxCell id="aW1ubNaQqkT1TN15lFtm-70" value="bmi &gt;= 18.5 &amp;&amp; bmi &lt;= 24.9" style="strokeWidth=2;html=1;shape=mxgraph.flowchart.decision;whiteSpace=wrap;" vertex="1" parent="1">
          <mxGeometry x="1531" y="337" width="243" height="100" as="geometry" />
        </mxCell>
        <mxCell id="aW1ubNaQqkT1TN15lFtm-82" style="edgeStyle=none;curved=1;rounded=0;orthogonalLoop=1;jettySize=auto;html=1;fontSize=12;startSize=8;endSize=8;" edge="1" parent="1" source="aW1ubNaQqkT1TN15lFtm-71" target="aW1ubNaQqkT1TN15lFtm-81">
          <mxGeometry relative="1" as="geometry">
            <Array as="points">
              <mxPoint x="1687" y="582" />
            </Array>
          </mxGeometry>
        </mxCell>
        <mxCell id="aW1ubNaQqkT1TN15lFtm-89" value="TRUE" style="edgeLabel;html=1;align=center;verticalAlign=middle;resizable=0;points=[];fontSize=12;" vertex="1" connectable="0" parent="aW1ubNaQqkT1TN15lFtm-82">
          <mxGeometry x="0.1886" y="-9" relative="1" as="geometry">
            <mxPoint as="offset" />
          </mxGeometry>
        </mxCell>
        <mxCell id="aW1ubNaQqkT1TN15lFtm-71" value="bmi &gt;= 25 &amp;&amp; bmi &lt;= 29.9" style="strokeWidth=2;html=1;shape=mxgraph.flowchart.decision;whiteSpace=wrap;" vertex="1" parent="1">
          <mxGeometry x="1447" y="517" width="194" height="130" as="geometry" />
        </mxCell>
        <mxCell id="aW1ubNaQqkT1TN15lFtm-73" style="edgeStyle=none;curved=1;rounded=0;orthogonalLoop=1;jettySize=auto;html=1;entryX=0.5;entryY=0;entryDx=0;entryDy=0;entryPerimeter=0;fontSize=12;startSize=8;endSize=8;" edge="1" parent="1" source="aW1ubNaQqkT1TN15lFtm-69" target="aW1ubNaQqkT1TN15lFtm-70">
          <mxGeometry relative="1" as="geometry">
            <Array as="points">
              <mxPoint x="1683" y="228" />
            </Array>
          </mxGeometry>
        </mxCell>
        <mxCell id="aW1ubNaQqkT1TN15lFtm-86" value="FALSE" style="edgeLabel;html=1;align=center;verticalAlign=middle;resizable=0;points=[];fontSize=12;" vertex="1" connectable="0" parent="aW1ubNaQqkT1TN15lFtm-73">
          <mxGeometry x="0.1753" y="4" relative="1" as="geometry">
            <mxPoint y="-1" as="offset" />
          </mxGeometry>
        </mxCell>
        <mxCell id="aW1ubNaQqkT1TN15lFtm-74" style="edgeStyle=none;curved=1;rounded=0;orthogonalLoop=1;jettySize=auto;html=1;entryX=0.5;entryY=0;entryDx=0;entryDy=0;entryPerimeter=0;fontSize=12;startSize=8;endSize=8;" edge="1" parent="1" source="aW1ubNaQqkT1TN15lFtm-70" target="aW1ubNaQqkT1TN15lFtm-71">
          <mxGeometry relative="1" as="geometry">
            <Array as="points">
              <mxPoint x="1512" y="387" />
            </Array>
          </mxGeometry>
        </mxCell>
        <mxCell id="aW1ubNaQqkT1TN15lFtm-88" value="FALSE" style="edgeLabel;html=1;align=center;verticalAlign=middle;resizable=0;points=[];fontSize=12;" vertex="1" connectable="0" parent="aW1ubNaQqkT1TN15lFtm-74">
          <mxGeometry x="0.0121" y="8" relative="1" as="geometry">
            <mxPoint y="1" as="offset" />
          </mxGeometry>
        </mxCell>
        <mxCell id="aW1ubNaQqkT1TN15lFtm-84" style="edgeStyle=none;curved=1;rounded=0;orthogonalLoop=1;jettySize=auto;html=1;entryX=0.5;entryY=0;entryDx=0;entryDy=0;fontSize=12;startSize=8;endSize=8;" edge="1" parent="1" source="aW1ubNaQqkT1TN15lFtm-75" target="aW1ubNaQqkT1TN15lFtm-83">
          <mxGeometry relative="1" as="geometry">
            <Array as="points">
              <mxPoint x="1501" y="728" />
            </Array>
          </mxGeometry>
        </mxCell>
        <mxCell id="aW1ubNaQqkT1TN15lFtm-91" value="TRUE" style="edgeLabel;html=1;align=center;verticalAlign=middle;resizable=0;points=[];fontSize=12;" vertex="1" connectable="0" parent="aW1ubNaQqkT1TN15lFtm-84">
          <mxGeometry x="-0.0536" y="-5" relative="1" as="geometry">
            <mxPoint as="offset" />
          </mxGeometry>
        </mxCell>
        <mxCell id="aW1ubNaQqkT1TN15lFtm-75" value="bmi &gt;= 30" style="strokeWidth=2;html=1;shape=mxgraph.flowchart.decision;whiteSpace=wrap;" vertex="1" parent="1">
          <mxGeometry x="1350" y="678" width="127" height="100" as="geometry" />
        </mxCell>
        <mxCell id="aW1ubNaQqkT1TN15lFtm-76" style="edgeStyle=none;curved=1;rounded=0;orthogonalLoop=1;jettySize=auto;html=1;entryX=0.5;entryY=0;entryDx=0;entryDy=0;entryPerimeter=0;fontSize=12;startSize=8;endSize=8;" edge="1" parent="1" source="aW1ubNaQqkT1TN15lFtm-71" target="aW1ubNaQqkT1TN15lFtm-75">
          <mxGeometry relative="1" as="geometry">
            <Array as="points">
              <mxPoint x="1423" y="582" />
            </Array>
          </mxGeometry>
        </mxCell>
        <mxCell id="aW1ubNaQqkT1TN15lFtm-90" value="FALSE" style="edgeLabel;html=1;align=center;verticalAlign=middle;resizable=0;points=[];fontSize=12;" vertex="1" connectable="0" parent="aW1ubNaQqkT1TN15lFtm-76">
          <mxGeometry x="0.1412" y="-1" relative="1" as="geometry">
            <mxPoint as="offset" />
          </mxGeometry>
        </mxCell>
        <mxCell id="aW1ubNaQqkT1TN15lFtm-77" value="printf(&quot;kurus&quot;);" style="shape=parallelogram;html=1;strokeWidth=2;perimeter=parallelogramPerimeter;whiteSpace=wrap;rounded=1;arcSize=12;size=0.23;" vertex="1" parent="1">
          <mxGeometry x="1861" y="310" width="134" height="60" as="geometry" />
        </mxCell>
        <mxCell id="aW1ubNaQqkT1TN15lFtm-94" style="edgeStyle=none;curved=1;rounded=0;orthogonalLoop=1;jettySize=auto;html=1;fontSize=12;startSize=8;endSize=8;" edge="1" parent="1" source="aW1ubNaQqkT1TN15lFtm-79" target="aW1ubNaQqkT1TN15lFtm-92">
          <mxGeometry relative="1" as="geometry">
            <Array as="points">
              <mxPoint x="2033" y="599" />
            </Array>
          </mxGeometry>
        </mxCell>
        <mxCell id="aW1ubNaQqkT1TN15lFtm-79" value="printf(&quot;Normal&quot;);" style="shape=parallelogram;html=1;strokeWidth=2;perimeter=parallelogramPerimeter;whiteSpace=wrap;rounded=1;arcSize=12;size=0.23;" vertex="1" parent="1">
          <mxGeometry x="1757" y="473" width="151" height="69" as="geometry" />
        </mxCell>
        <mxCell id="aW1ubNaQqkT1TN15lFtm-81" value="printf(&quot;Kelebihan berat&quot;);" style="shape=parallelogram;html=1;strokeWidth=2;perimeter=parallelogramPerimeter;whiteSpace=wrap;rounded=1;arcSize=12;size=0.23;" vertex="1" parent="1">
          <mxGeometry x="1661" y="656" width="222" height="60" as="geometry" />
        </mxCell>
        <mxCell id="aW1ubNaQqkT1TN15lFtm-83" value="printf(&quot;Obesitas&quot;);" style="shape=parallelogram;perimeter=parallelogramPerimeter;whiteSpace=wrap;html=1;fixedSize=1;" vertex="1" parent="1">
          <mxGeometry x="1438" y="792" width="143" height="60" as="geometry" />
        </mxCell>
        <mxCell id="aW1ubNaQqkT1TN15lFtm-92" value="END" style="strokeWidth=2;html=1;shape=mxgraph.flowchart.terminator;whiteSpace=wrap;" vertex="1" parent="1">
          <mxGeometry x="1710" y="942" width="100" height="60" as="geometry" />
        </mxCell>
        <mxCell id="aW1ubNaQqkT1TN15lFtm-93" style="edgeStyle=none;curved=1;rounded=0;orthogonalLoop=1;jettySize=auto;html=1;entryX=0.634;entryY=0.074;entryDx=0;entryDy=0;entryPerimeter=0;fontSize=12;startSize=8;endSize=8;" edge="1" parent="1" source="aW1ubNaQqkT1TN15lFtm-77" target="aW1ubNaQqkT1TN15lFtm-92">
          <mxGeometry relative="1" as="geometry">
            <Array as="points">
              <mxPoint x="2141" y="713" />
            </Array>
          </mxGeometry>
        </mxCell>
        <mxCell id="aW1ubNaQqkT1TN15lFtm-95" style="edgeStyle=none;curved=1;rounded=0;orthogonalLoop=1;jettySize=auto;html=1;entryX=0.5;entryY=0;entryDx=0;entryDy=0;entryPerimeter=0;fontSize=12;startSize=8;endSize=8;" edge="1" parent="1" source="aW1ubNaQqkT1TN15lFtm-81" target="aW1ubNaQqkT1TN15lFtm-92">
          <mxGeometry relative="1" as="geometry" />
        </mxCell>
        <mxCell id="aW1ubNaQqkT1TN15lFtm-96" style="edgeStyle=none;curved=1;rounded=0;orthogonalLoop=1;jettySize=auto;html=1;entryX=0.111;entryY=0.459;entryDx=0;entryDy=0;entryPerimeter=0;fontSize=12;startSize=8;endSize=8;" edge="1" parent="1" source="aW1ubNaQqkT1TN15lFtm-83" target="aW1ubNaQqkT1TN15lFtm-92">
          <mxGeometry relative="1" as="geometry" />
        </mxCell>
        <mxCell id="aW1ubNaQqkT1TN15lFtm-97" style="edgeStyle=none;curved=1;rounded=0;orthogonalLoop=1;jettySize=auto;html=1;entryX=0;entryY=0.5;entryDx=0;entryDy=0;entryPerimeter=0;fontSize=12;startSize=8;endSize=8;" edge="1" parent="1" source="aW1ubNaQqkT1TN15lFtm-75" target="aW1ubNaQqkT1TN15lFtm-92">
          <mxGeometry relative="1" as="geometry">
            <Array as="points">
              <mxPoint x="1378" y="913" />
            </Array>
          </mxGeometry>
        </mxCell>
        <mxCell id="aW1ubNaQqkT1TN15lFtm-98" value="FALSE" style="edgeLabel;html=1;align=center;verticalAlign=middle;resizable=0;points=[];fontSize=12;" vertex="1" connectable="0" parent="aW1ubNaQqkT1TN15lFtm-97">
          <mxGeometry x="-0.0303" y="32" relative="1" as="geometry">
            <mxPoint x="-1" y="-1" as="offset" />
          </mxGeometry>
        </mxCell>
        <mxCell id="aW1ubNaQqkT1TN15lFtm-101" style="edgeStyle=none;curved=1;rounded=0;orthogonalLoop=1;jettySize=auto;html=1;fontSize=12;startSize=8;endSize=8;" edge="1" parent="1" source="aW1ubNaQqkT1TN15lFtm-99" target="aW1ubNaQqkT1TN15lFtm-100">
          <mxGeometry relative="1" as="geometry" />
        </mxCell>
        <mxCell id="aW1ubNaQqkT1TN15lFtm-99" value="START" style="strokeWidth=2;html=1;shape=mxgraph.flowchart.terminator;whiteSpace=wrap;" vertex="1" parent="1">
          <mxGeometry x="2578" y="-334" width="100" height="60" as="geometry" />
        </mxCell>
        <mxCell id="aW1ubNaQqkT1TN15lFtm-103" style="edgeStyle=none;curved=1;rounded=0;orthogonalLoop=1;jettySize=auto;html=1;fontSize=12;startSize=8;endSize=8;" edge="1" parent="1" source="aW1ubNaQqkT1TN15lFtm-100" target="aW1ubNaQqkT1TN15lFtm-102">
          <mxGeometry relative="1" as="geometry" />
        </mxCell>
        <mxCell id="aW1ubNaQqkT1TN15lFtm-100" value="unsigned a=18;&#xa;unsigned b = 24;" style="shape=hexagon;perimeter=hexagonPerimeter2;whiteSpace=wrap;html=1;fixedSize=1;" vertex="1" parent="1">
          <mxGeometry x="2556.5" y="-230" width="143" height="60" as="geometry" />
        </mxCell>
        <mxCell id="aW1ubNaQqkT1TN15lFtm-102" value="printf(&quot;No 1 : %u\n&quot;,a = a&gt;&gt;2);&#xa;printf(&quot;No 2 : %u\n&quot;,b = b&lt;&lt;3);&#xa;printf(&quot;No 3 : %u\n&quot;,a = a&amp;b);&#xa;printf(&quot;No 4 : %u\n&quot;,b = a|b);&#xa;printf(&quot;No 5 : %u\n&quot;,a=a^b);&#xa;printf(&quot;No 6 : %u\n&quot;,b = ~a);" style="shape=parallelogram;html=1;strokeWidth=2;perimeter=parallelogramPerimeter;whiteSpace=wrap;rounded=1;arcSize=12;size=0.23;" vertex="1" parent="1">
          <mxGeometry x="2474" y="-126" width="303" height="118" as="geometry" />
        </mxCell>
        <mxCell id="aW1ubNaQqkT1TN15lFtm-104" value="END" style="strokeWidth=2;html=1;shape=mxgraph.flowchart.terminator;whiteSpace=wrap;" vertex="1" parent="1">
          <mxGeometry x="2576" y="50" width="100" height="60" as="geometry" />
        </mxCell>
        <mxCell id="aW1ubNaQqkT1TN15lFtm-105" style="edgeStyle=none;curved=1;rounded=0;orthogonalLoop=1;jettySize=auto;html=1;entryX=0.5;entryY=0;entryDx=0;entryDy=0;entryPerimeter=0;fontSize=12;startSize=8;endSize=8;" edge="1" parent="1" source="aW1ubNaQqkT1TN15lFtm-102" target="aW1ubNaQqkT1TN15lFtm-104">
          <mxGeometry relative="1" as="geometry" />
        </mxCell>
        <mxCell id="aW1ubNaQqkT1TN15lFtm-108" style="edgeStyle=none;curved=1;rounded=0;orthogonalLoop=1;jettySize=auto;html=1;fontSize=12;startSize=8;endSize=8;" edge="1" parent="1" source="aW1ubNaQqkT1TN15lFtm-106" target="aW1ubNaQqkT1TN15lFtm-107">
          <mxGeometry relative="1" as="geometry" />
        </mxCell>
        <mxCell id="aW1ubNaQqkT1TN15lFtm-106" value="START" style="strokeWidth=2;html=1;shape=mxgraph.flowchart.terminator;whiteSpace=wrap;" vertex="1" parent="1">
          <mxGeometry x="3193" y="-369" width="83" height="57" as="geometry" />
        </mxCell>
        <mxCell id="aW1ubNaQqkT1TN15lFtm-111" style="edgeStyle=none;curved=1;rounded=0;orthogonalLoop=1;jettySize=auto;html=1;fontSize=12;startSize=8;endSize=8;" edge="1" parent="1" source="aW1ubNaQqkT1TN15lFtm-107" target="aW1ubNaQqkT1TN15lFtm-110">
          <mxGeometry relative="1" as="geometry" />
        </mxCell>
        <mxCell id="aW1ubNaQqkT1TN15lFtm-107" value="char pw, nama[20];&#xa;    int tahun, jamKerja;" style="shape=hexagon;perimeter=hexagonPerimeter2;whiteSpace=wrap;html=1;fixedSize=1;" vertex="1" parent="1">
          <mxGeometry x="3150" y="-269" width="162" height="80" as="geometry" />
        </mxCell>
        <mxCell id="aW1ubNaQqkT1TN15lFtm-115" style="edgeStyle=none;curved=1;rounded=0;orthogonalLoop=1;jettySize=auto;html=1;fontSize=12;startSize=8;endSize=8;entryX=0.5;entryY=0;entryDx=0;entryDy=0;entryPerimeter=0;" edge="1" parent="1" source="aW1ubNaQqkT1TN15lFtm-110" target="aW1ubNaQqkT1TN15lFtm-112">
          <mxGeometry relative="1" as="geometry" />
        </mxCell>
        <mxCell id="aW1ubNaQqkT1TN15lFtm-110" value="printf(&quot;Masukkan Password\n&quot;);&#xa;    pw=getch();" style="shape=parallelogram;html=1;strokeWidth=2;perimeter=parallelogramPerimeter;whiteSpace=wrap;rounded=1;arcSize=12;size=0.23;" vertex="1" parent="1">
          <mxGeometry x="3091.5" y="-147" width="279" height="106" as="geometry" />
        </mxCell>
        <mxCell id="aW1ubNaQqkT1TN15lFtm-114" style="edgeStyle=none;curved=1;rounded=0;orthogonalLoop=1;jettySize=auto;html=1;fontSize=12;startSize=8;endSize=8;" edge="1" parent="1" source="aW1ubNaQqkT1TN15lFtm-112" target="aW1ubNaQqkT1TN15lFtm-113">
          <mxGeometry relative="1" as="geometry">
            <Array as="points">
              <mxPoint x="3349" y="82" />
            </Array>
          </mxGeometry>
        </mxCell>
        <mxCell id="aW1ubNaQqkT1TN15lFtm-116" value="TRUE" style="edgeLabel;html=1;align=center;verticalAlign=middle;resizable=0;points=[];fontSize=12;" vertex="1" connectable="0" parent="aW1ubNaQqkT1TN15lFtm-114">
          <mxGeometry x="0.0049" y="-10" relative="1" as="geometry">
            <mxPoint y="-1" as="offset" />
          </mxGeometry>
        </mxCell>
        <mxCell id="aW1ubNaQqkT1TN15lFtm-118" style="edgeStyle=none;curved=1;rounded=0;orthogonalLoop=1;jettySize=auto;html=1;fontSize=12;startSize=8;endSize=8;" edge="1" parent="1" source="aW1ubNaQqkT1TN15lFtm-112" target="aW1ubNaQqkT1TN15lFtm-117">
          <mxGeometry relative="1" as="geometry">
            <Array as="points">
              <mxPoint x="3107" y="85" />
            </Array>
          </mxGeometry>
        </mxCell>
        <mxCell id="aW1ubNaQqkT1TN15lFtm-119" value="FALSE" style="edgeLabel;html=1;align=center;verticalAlign=middle;resizable=0;points=[];fontSize=12;" vertex="1" connectable="0" parent="aW1ubNaQqkT1TN15lFtm-118">
          <mxGeometry x="0.0793" y="8" relative="1" as="geometry">
            <mxPoint as="offset" />
          </mxGeometry>
        </mxCell>
        <mxCell id="aW1ubNaQqkT1TN15lFtm-112" value="pw == &#39;x&#39;" style="strokeWidth=2;html=1;shape=mxgraph.flowchart.decision;whiteSpace=wrap;" vertex="1" parent="1">
          <mxGeometry x="3167.5" y="29" width="134" height="94" as="geometry" />
        </mxCell>
        <mxCell id="aW1ubNaQqkT1TN15lFtm-122" style="edgeStyle=none;curved=1;rounded=0;orthogonalLoop=1;jettySize=auto;html=1;fontSize=12;startSize=8;endSize=8;" edge="1" parent="1" source="aW1ubNaQqkT1TN15lFtm-113" target="aW1ubNaQqkT1TN15lFtm-120">
          <mxGeometry relative="1" as="geometry" />
        </mxCell>
        <mxCell id="aW1ubNaQqkT1TN15lFtm-113" value="printf(&quot;Masukkan&quot;&#xa;               &quot;\n- Nama&quot;&#xa;               &quot;\n- Tahun Lahir&quot;&#xa;               &quot;\n- Jam kerja\n&quot;&#xa;               &quot;\nDengan format [NAMA] *enter* [TAHUN] *enter* [JAM]\n&quot;&#xa;               );&#xa;&#xa;        scanf(&quot;%s&quot;, &amp;nama);&#xa;        scanf(&quot;%d&quot;, &amp;tahun);&#xa;        scanf(&quot;%d&quot;, &amp;jamKerja);&#xa;&#xa;        printf(&quot;Data Karyawan\n&quot;&#xa;               &quot;Nama: %s\n&quot;&#xa;               &quot;Usia: %d\n&quot;&#xa;               &quot;Gaji: %d\n&quot;&#xa;               ,nama, 2024 - tahun, jamKerja * UPAH);" style="shape=parallelogram;html=1;strokeWidth=2;perimeter=parallelogramPerimeter;whiteSpace=wrap;rounded=1;arcSize=17;size=0.22326279668287108;" vertex="1" parent="1">
          <mxGeometry x="3236" y="214" width="438" height="303" as="geometry" />
        </mxCell>
        <mxCell id="aW1ubNaQqkT1TN15lFtm-121" style="edgeStyle=none;curved=1;rounded=0;orthogonalLoop=1;jettySize=auto;html=1;fontSize=12;startSize=8;endSize=8;" edge="1" parent="1" source="aW1ubNaQqkT1TN15lFtm-117" target="aW1ubNaQqkT1TN15lFtm-120">
          <mxGeometry relative="1" as="geometry" />
        </mxCell>
        <mxCell id="aW1ubNaQqkT1TN15lFtm-117" value="printf(&quot;Password Salah&quot;);" style="shape=parallelogram;html=1;strokeWidth=2;perimeter=parallelogramPerimeter;whiteSpace=wrap;rounded=1;arcSize=12;size=0.23;" vertex="1" parent="1">
          <mxGeometry x="2942" y="279" width="208" height="55" as="geometry" />
        </mxCell>
        <mxCell id="aW1ubNaQqkT1TN15lFtm-120" value="END" style="strokeWidth=2;html=1;shape=mxgraph.flowchart.terminator;whiteSpace=wrap;" vertex="1" parent="1">
          <mxGeometry x="3208" y="698" width="66" height="46" as="geometry" />
        </mxCell>
      </root>
    </mxGraphModel>
  </diagram>
</mxfile>
